<svg xmlns="http://www.w3.org/2000/svg" xmlns:xlink="http://www.w3.org/1999/xlink" width="1366" zoomAndPan="magnify" viewBox="0 0 1024.5 576" height="768" preserveAspectRatio="xMidYMid meet" version="1.0"><defs><clipPath id="90aa54ad85"><path d="M 0 0.140625 L 1024 0.140625 L 1024 575.859375 L 0 575.859375 Z M 0 0.140625 " clip-rule="nonzero"/></clipPath><clipPath id="e8fab9a00f"><path d="M 365.277344 211.753906 L 658.722656 211.753906 L 658.722656 505.195312 L 365.277344 505.195312 Z M 365.277344 211.753906 " clip-rule="nonzero"/></clipPath><clipPath id="1ce77797e2"><path d="M 512 211.753906 C 430.96875 211.753906 365.277344 277.445312 365.277344 358.476562 C 365.277344 439.507812 430.96875 505.195312 512 505.195312 C 593.03125 505.195312 658.722656 439.507812 658.722656 358.476562 C 658.722656 277.445312 593.03125 211.753906 512 211.753906 Z M 512 211.753906 " clip-rule="nonzero"/></clipPath></defs><g clip-path="url(#90aa54ad85)"><path fill="#ffffff" d="M 0 0.140625 L 1024 0.140625 L 1024 575.859375 L 0 575.859375 Z M 0 0.140625 " fill-opacity="1" fill-rule="nonzero"/><path fill="#2e2f34" d="M 0 0.140625 L 1024 0.140625 L 1024 575.859375 L 0 575.859375 Z M 0 0.140625 " fill-opacity="1" fill-rule="nonzero"/></g><g clip-path="url(#e8fab9a00f)"><g clip-path="url(#1ce77797e2)"><path fill="#d1ccaf" d="M 365.277344 211.753906 L 658.722656 211.753906 L 658.722656 505.195312 L 365.277344 505.195312 Z M 365.277344 211.753906 " fill-opacity="1" fill-rule="nonzero"/></g></g></svg>